<svg xmlns="http://www.w3.org/2000/svg" viewBox="31.9 26.6 635.6 544.8" width="636" height="545">
  <!-- Placeholder mark. Replace this file with Urchi (any one-colour silhouette, 7:6). -->
  <path fill="#000" fill-rule="evenodd" d="M638.9 319.1 L537.6 328.2 L659.4 349.8 L534.1 348.5 L594.6 377.9 L527.1 368.2 L636.5 423.8 L516.9 387.0 L574.5 423.8 L503.6 404.5 L574.8 461.6 L487.4 420.4 L538.1 485.4 L468.6 434.4 L479.6 457.4 L447.7 446.2 L474.0 507.4 L424.9 455.6 L424.7 488.1 L400.7 462.4 L406.9 512.4 L375.6 466.6 L373.5 536.9 L350.0 468.0 L333.0 508.7 L324.4 466.6 L293.5 512.1 L299.3 462.4 L264.6 500.8 L275.1 455.6 L239.4 489.8 L252.3 446.2 L216.1 464.4 L231.4 434.4 L156.1 478.2 L212.6 420.4 L166.2 435.7 L196.4 404.5 L91.2 446.3 L183.1 387.0 L98.0 404.0 L172.9 368.2 L47.5 391.8 L165.9 348.5 L59.6 354.0 L162.4 328.2 L67.5 319.0 L162.4 307.8 L77.8 291.8 L165.9 287.5 L31.9 250.0 L172.9 267.8 L62.6 221.9 L183.1 249.0 L65.4 178.3 L196.4 231.5 L125.1 169.8 L212.6 215.6 L135.7 143.6 L231.4 201.6 L149.8 97.2 L252.3 189.8 L204.3 93.8 L275.1 180.4 L250.1 90.3 L299.3 173.6 L290.1 85.9 L324.4 169.4 L334.5 98.6 L350.0 168.0 L368.1 61.2 L375.6 169.4 L407.6 110.8 L400.7 173.6 L453.3 88.0 L424.9 180.4 L495.8 86.9 L447.7 189.8 L547.0 104.9 L468.6 201.6 L541.4 151.5 L487.4 215.6 L589.3 155.9 L503.6 231.5 L644.0 183.1 L516.9 249.0 L618.2 230.1 L527.1 267.8 L667.5 245.3 L534.1 287.5 L619.1 291.4 L537.6 307.8 Z M283 300 a15 23 0 1 0 30 0 a15 23 0 1 0 -30 0 Z M387 300 a15 23 0 1 0 30 0 a15 23 0 1 0 -30 0 Z"/>
</svg>
